<?xml version="1.0" encoding="UTF-8" standalone="no"?>
<!DOCTYPE svg PUBLIC "-//W3C//DTD SVG 1.1//EN"
 "http://www.w3.org/Graphics/SVG/1.1/DTD/svg11.dtd">
<!-- Generated by graphviz version 2.40.1 (0)
 -->
<!-- Title: snakemake_dag Pages: 1 -->
<svg width="473pt" height="260pt"
 viewBox="0.00 0.00 473.33 260.00" xmlns="http://www.w3.org/2000/svg" xmlns:xlink="http://www.w3.org/1999/xlink">
<g id="graph0" class="graph" transform="scale(1 1) rotate(0) translate(4 256)">
<title>snakemake_dag</title>
<polygon fill="#ffffff" stroke="transparent" points="-4,4 -4,-256 469.327,-256 469.327,4 -4,4"/>
<!-- 0 -->
<g id="node1" class="node">
<title>0</title>
<path fill="none" stroke="#97d856" stroke-width="2" d="M152.827,-36C152.827,-36 122.827,-36 122.827,-36 116.827,-36 110.827,-30 110.827,-24 110.827,-24 110.827,-12 110.827,-12 110.827,-6 116.827,0 122.827,0 122.827,0 152.827,0 152.827,0 158.827,0 164.827,-6 164.827,-12 164.827,-12 164.827,-24 164.827,-24 164.827,-30 158.827,-36 152.827,-36"/>
<text text-anchor="middle" x="137.827" y="-15.5" font-family="sans" font-size="10.00" fill="#000000">all</text>
</g>
<!-- 1 -->
<g id="node2" class="node">
<title>1</title>
<path fill="none" stroke="#59d856" stroke-width="2" d="M57.827,-252C57.827,-252 27.827,-252 27.827,-252 21.827,-252 15.827,-246 15.827,-240 15.827,-240 15.827,-228 15.827,-228 15.827,-222 21.827,-216 27.827,-216 27.827,-216 57.827,-216 57.827,-216 63.827,-216 69.827,-222 69.827,-228 69.827,-228 69.827,-240 69.827,-240 69.827,-246 63.827,-252 57.827,-252"/>
<text text-anchor="middle" x="42.827" y="-231.5" font-family="sans" font-size="10.00" fill="#000000">dea</text>
</g>
<!-- 1&#45;&gt;0 -->
<g id="edge5" class="edge">
<title>1&#45;&gt;0</title>
<path fill="none" stroke="#c0c0c0" stroke-width="2" d="M25.1162,-215.6517C16.9328,-205.8946 8.0966,-193.2041 3.827,-180 -1.0957,-164.7761 -1.3656,-159.134 3.827,-144 20.3326,-95.8937 68.1663,-58.8759 101.9586,-37.7692"/>
<polygon fill="#c0c0c0" stroke="#c0c0c0" stroke-width="2" points="103.9158,-40.6756 110.649,-32.4954 100.2842,-34.6913 103.9158,-40.6756"/>
</g>
<!-- 2 -->
<g id="node3" class="node">
<title>2</title>
<path fill="none" stroke="#d89556" stroke-width="2" d="M60.827,-180C60.827,-180 24.827,-180 24.827,-180 18.827,-180 12.827,-174 12.827,-168 12.827,-168 12.827,-156 12.827,-156 12.827,-150 18.827,-144 24.827,-144 24.827,-144 60.827,-144 60.827,-144 66.827,-144 72.827,-150 72.827,-156 72.827,-156 72.827,-168 72.827,-168 72.827,-174 66.827,-180 60.827,-180"/>
<text text-anchor="middle" x="42.827" y="-159.5" font-family="sans" font-size="10.00" fill="#000000">volcanos</text>
</g>
<!-- 1&#45;&gt;2 -->
<g id="edge8" class="edge">
<title>1&#45;&gt;2</title>
<path fill="none" stroke="#c0c0c0" stroke-width="2" d="M42.827,-215.8314C42.827,-208.131 42.827,-198.9743 42.827,-190.4166"/>
<polygon fill="#c0c0c0" stroke="#c0c0c0" stroke-width="2" points="46.3271,-190.4132 42.827,-180.4133 39.3271,-190.4133 46.3271,-190.4132"/>
</g>
<!-- 3 -->
<g id="node4" class="node">
<title>3</title>
<path fill="none" stroke="#569ad8" stroke-width="2" d="M144.827,-180C144.827,-180 102.827,-180 102.827,-180 96.827,-180 90.827,-174 90.827,-168 90.827,-168 90.827,-156 90.827,-156 90.827,-150 96.827,-144 102.827,-144 102.827,-144 144.827,-144 144.827,-144 150.827,-144 156.827,-150 156.827,-156 156.827,-156 156.827,-168 156.827,-168 156.827,-174 150.827,-180 144.827,-180"/>
<text text-anchor="middle" x="123.827" y="-159.5" font-family="sans" font-size="10.00" fill="#000000">aggregate</text>
</g>
<!-- 1&#45;&gt;3 -->
<g id="edge9" class="edge">
<title>1&#45;&gt;3</title>
<path fill="none" stroke="#c0c0c0" stroke-width="2" d="M63.2667,-215.8314C73.1474,-207.0485 85.1594,-196.3712 95.872,-186.8489"/>
<polygon fill="#c0c0c0" stroke="#c0c0c0" stroke-width="2" points="98.245,-189.4224 103.3938,-180.1628 93.5944,-184.1906 98.245,-189.4224"/>
</g>
<!-- 2&#45;&gt;0 -->
<g id="edge2" class="edge">
<title>2&#45;&gt;0</title>
<path fill="none" stroke="#c0c0c0" stroke-width="2" d="M48.6603,-143.7144C55.2157,-124.7559 67.0405,-94.7612 82.827,-72 90.0362,-61.6056 99.4208,-51.5246 108.3911,-42.9428"/>
<polygon fill="#c0c0c0" stroke="#c0c0c0" stroke-width="2" points="110.8095,-45.4736 115.7719,-36.1128 106.0551,-40.3358 110.8095,-45.4736"/>
</g>
<!-- 3&#45;&gt;0 -->
<g id="edge7" class="edge">
<title>3&#45;&gt;0</title>
<path fill="none" stroke="#c0c0c0" stroke-width="2" d="M108.7129,-143.7768C101.4721,-133.8586 93.5746,-120.9858 89.827,-108 85.3905,-92.6274 84.1409,-86.9555 89.827,-72 93.8542,-61.4076 101.017,-51.5662 108.6006,-43.2649"/>
<polygon fill="#c0c0c0" stroke="#c0c0c0" stroke-width="2" points="111.1196,-45.695 115.6057,-36.0968 106.1132,-40.8025 111.1196,-45.695"/>
</g>
<!-- 4 -->
<g id="node5" class="node">
<title>4</title>
<path fill="none" stroke="#d6d856" stroke-width="2" d="M164.327,-108C164.327,-108 111.327,-108 111.327,-108 105.327,-108 99.327,-102 99.327,-96 99.327,-96 99.327,-84 99.327,-84 99.327,-78 105.327,-72 111.327,-72 111.327,-72 164.327,-72 164.327,-72 170.327,-72 176.327,-78 176.327,-84 176.327,-84 176.327,-96 176.327,-96 176.327,-102 170.327,-108 164.327,-108"/>
<text text-anchor="middle" x="137.827" y="-87.5" font-family="sans" font-size="10.00" fill="#000000">lfc_heatmap</text>
</g>
<!-- 3&#45;&gt;4 -->
<g id="edge10" class="edge">
<title>3&#45;&gt;4</title>
<path fill="none" stroke="#c0c0c0" stroke-width="2" d="M127.3598,-143.8314C128.8571,-136.131 130.6375,-126.9743 132.3015,-118.4166"/>
<polygon fill="#c0c0c0" stroke="#c0c0c0" stroke-width="2" points="135.7735,-118.8975 134.2466,-108.4133 128.9022,-117.5614 135.7735,-118.8975"/>
</g>
<!-- 4&#45;&gt;0 -->
<g id="edge4" class="edge">
<title>4&#45;&gt;0</title>
<path fill="none" stroke="#c0c0c0" stroke-width="2" d="M137.827,-71.8314C137.827,-64.131 137.827,-54.9743 137.827,-46.4166"/>
<polygon fill="#c0c0c0" stroke="#c0c0c0" stroke-width="2" points="141.3271,-46.4132 137.827,-36.4133 134.3271,-46.4133 141.3271,-46.4132"/>
</g>
<!-- 5 -->
<g id="node6" class="node">
<title>5</title>
<path fill="none" stroke="#56d89a" stroke-width="2" d="M253.327,-108C253.327,-108 206.327,-108 206.327,-108 200.327,-108 194.327,-102 194.327,-96 194.327,-96 194.327,-84 194.327,-84 194.327,-78 200.327,-72 206.327,-72 206.327,-72 253.327,-72 253.327,-72 259.327,-72 265.327,-78 265.327,-84 265.327,-84 265.327,-96 265.327,-96 265.327,-102 259.327,-108 253.327,-108"/>
<text text-anchor="middle" x="229.827" y="-87.5" font-family="sans" font-size="10.00" fill="#000000">env_export</text>
</g>
<!-- 5&#45;&gt;0 -->
<g id="edge3" class="edge">
<title>5&#45;&gt;0</title>
<path fill="none" stroke="#c0c0c0" stroke-width="2" d="M206.6115,-71.8314C195.2799,-62.9632 181.4806,-52.1637 169.2243,-42.5718"/>
<polygon fill="#c0c0c0" stroke="#c0c0c0" stroke-width="2" points="171.0672,-39.5697 161.035,-36.1628 166.753,-45.0822 171.0672,-39.5697"/>
</g>
<!-- 6 -->
<g id="node7" class="node">
<title>6</title>
<path fill="none" stroke="#56d8d8" stroke-width="2" d="M354.327,-108C354.327,-108 295.327,-108 295.327,-108 289.327,-108 283.327,-102 283.327,-96 283.327,-96 283.327,-84 283.327,-84 283.327,-78 289.327,-72 295.327,-72 295.327,-72 354.327,-72 354.327,-72 360.327,-72 366.327,-78 366.327,-84 366.327,-84 366.327,-96 366.327,-96 366.327,-102 360.327,-108 354.327,-108"/>
<text text-anchor="middle" x="324.827" y="-87.5" font-family="sans" font-size="10.00" fill="#000000">config_export</text>
</g>
<!-- 6&#45;&gt;0 -->
<g id="edge6" class="edge">
<title>6&#45;&gt;0</title>
<path fill="none" stroke="#c0c0c0" stroke-width="2" d="M283.3256,-74.0209C250.7994,-61.4974 205.9633,-44.2343 174.6906,-32.1935"/>
<polygon fill="#c0c0c0" stroke="#c0c0c0" stroke-width="2" points="175.6363,-28.8072 165.0465,-28.4802 173.1211,-35.3397 175.6363,-28.8072"/>
</g>
<!-- 7 -->
<g id="node8" class="node">
<title>7</title>
<path fill="none" stroke="#d85656" stroke-width="2" d="M453.327,-108C453.327,-108 396.327,-108 396.327,-108 390.327,-108 384.327,-102 384.327,-96 384.327,-96 384.327,-84 384.327,-84 384.327,-78 390.327,-72 396.327,-72 396.327,-72 453.327,-72 453.327,-72 459.327,-72 465.327,-78 465.327,-84 465.327,-84 465.327,-96 465.327,-96 465.327,-102 459.327,-108 453.327,-108"/>
<text text-anchor="middle" x="424.827" y="-87.5" font-family="sans" font-size="10.00" fill="#000000">annot_export</text>
</g>
<!-- 7&#45;&gt;0 -->
<g id="edge1" class="edge">
<title>7&#45;&gt;0</title>
<path fill="none" stroke="#c0c0c0" stroke-width="2" d="M384.32,-74.6627C381.4593,-73.7207 378.608,-72.8226 375.827,-72 305.7582,-51.2752 222.0858,-33.9672 174.9367,-24.8777"/>
<polygon fill="#c0c0c0" stroke="#c0c0c0" stroke-width="2" points="175.3665,-21.3966 164.8874,-22.9585 174.0533,-28.2724 175.3665,-21.3966"/>
</g>
</g>
</svg>
