<?xml version="1.0" encoding="UTF-8" standalone="no"?>
<!DOCTYPE svg PUBLIC "-//W3C//DTD SVG 1.1//EN"
 "http://www.w3.org/Graphics/SVG/1.1/DTD/svg11.dtd">
<!-- Generated by graphviz version 2.40.1 (0)
 -->
<!-- Title: snakemake_dag Pages: 1 -->
<svg width="679pt" height="188pt"
 viewBox="0.00 0.00 679.24 188.00" xmlns="http://www.w3.org/2000/svg" xmlns:xlink="http://www.w3.org/1999/xlink">
<g id="graph0" class="graph" transform="scale(1 1) rotate(0) translate(4 184)">
<title>snakemake_dag</title>
<polygon fill="#ffffff" stroke="transparent" points="-4,4 -4,-184 675.2432,-184 675.2432,4 -4,4"/>
<!-- 0 -->
<g id="node1" class="node">
<title>0</title>
<path fill="none" stroke="#d85656" stroke-width="2" d="M277.7432,-36C277.7432,-36 247.7432,-36 247.7432,-36 241.7432,-36 235.7432,-30 235.7432,-24 235.7432,-24 235.7432,-12 235.7432,-12 235.7432,-6 241.7432,0 247.7432,0 247.7432,0 277.7432,0 277.7432,0 283.7432,0 289.7432,-6 289.7432,-12 289.7432,-12 289.7432,-24 289.7432,-24 289.7432,-30 283.7432,-36 277.7432,-36"/>
<text text-anchor="middle" x="262.7432" y="-15.5" font-family="sans" font-size="10.00" fill="#000000">all</text>
</g>
<!-- 1 -->
<g id="node2" class="node">
<title>1</title>
<path fill="none" stroke="#d8cb56" stroke-width="2" d="M100.7432,-180C100.7432,-180 70.7432,-180 70.7432,-180 64.7432,-180 58.7432,-174 58.7432,-168 58.7432,-168 58.7432,-156 58.7432,-156 58.7432,-150 64.7432,-144 70.7432,-144 70.7432,-144 100.7432,-144 100.7432,-144 106.7432,-144 112.7432,-150 112.7432,-156 112.7432,-156 112.7432,-168 112.7432,-168 112.7432,-174 106.7432,-180 100.7432,-180"/>
<text text-anchor="middle" x="85.7432" y="-159.5" font-family="sans" font-size="10.00" fill="#000000">dea</text>
</g>
<!-- 1&#45;&gt;0 -->
<g id="edge2" class="edge">
<title>1&#45;&gt;0</title>
<path fill="none" stroke="#c0c0c0" stroke-width="2" d="M58.4683,-151.456C40.2078,-142.7912 17.5988,-128.5697 6.7432,-108 -.7247,-93.8497 -3.3356,-84.4265 6.7432,-72 33.8469,-38.5826 161.0393,-25.0519 225.3349,-20.2754"/>
<polygon fill="#c0c0c0" stroke="#c0c0c0" stroke-width="2" points="225.7328,-23.7561 235.46,-19.5572 225.2374,-16.7736 225.7328,-23.7561"/>
</g>
<!-- 2 -->
<g id="node3" class="node">
<title>2</title>
<path fill="none" stroke="#70d856" stroke-width="2" d="M63.7432,-108C63.7432,-108 27.7432,-108 27.7432,-108 21.7432,-108 15.7432,-102 15.7432,-96 15.7432,-96 15.7432,-84 15.7432,-84 15.7432,-78 21.7432,-72 27.7432,-72 27.7432,-72 63.7432,-72 63.7432,-72 69.7432,-72 75.7432,-78 75.7432,-84 75.7432,-84 75.7432,-96 75.7432,-96 75.7432,-102 69.7432,-108 63.7432,-108"/>
<text text-anchor="middle" x="45.7432" y="-87.5" font-family="sans" font-size="10.00" fill="#000000">volcanos</text>
</g>
<!-- 1&#45;&gt;2 -->
<g id="edge9" class="edge">
<title>1&#45;&gt;2</title>
<path fill="none" stroke="#c0c0c0" stroke-width="2" d="M75.6495,-143.8314C71.1834,-135.7925 65.8357,-126.1666 60.9053,-117.2918"/>
<polygon fill="#c0c0c0" stroke="#c0c0c0" stroke-width="2" points="63.8888,-115.4551 55.9727,-108.4133 57.7697,-118.8546 63.8888,-115.4551"/>
</g>
<!-- 3 -->
<g id="node4" class="node">
<title>3</title>
<path fill="none" stroke="#56d8a9" stroke-width="2" d="M147.7432,-108C147.7432,-108 105.7432,-108 105.7432,-108 99.7432,-108 93.7432,-102 93.7432,-96 93.7432,-96 93.7432,-84 93.7432,-84 93.7432,-78 99.7432,-72 105.7432,-72 105.7432,-72 147.7432,-72 147.7432,-72 153.7432,-72 159.7432,-78 159.7432,-84 159.7432,-84 159.7432,-96 159.7432,-96 159.7432,-102 153.7432,-108 147.7432,-108"/>
<text text-anchor="middle" x="126.7432" y="-87.5" font-family="sans" font-size="10.00" fill="#000000">aggregate</text>
</g>
<!-- 1&#45;&gt;3 -->
<g id="edge10" class="edge">
<title>1&#45;&gt;3</title>
<path fill="none" stroke="#c0c0c0" stroke-width="2" d="M96.0892,-143.8314C100.6669,-135.7925 106.1483,-126.1666 111.202,-117.2918"/>
<polygon fill="#c0c0c0" stroke="#c0c0c0" stroke-width="2" points="114.3508,-118.8351 116.2578,-108.4133 108.2679,-115.3712 114.3508,-118.8351"/>
</g>
<!-- 4 -->
<g id="node5" class="node">
<title>4</title>
<path fill="none" stroke="#56c9d8" stroke-width="2" d="M243.2432,-108C243.2432,-108 190.2432,-108 190.2432,-108 184.2432,-108 178.2432,-102 178.2432,-96 178.2432,-96 178.2432,-84 178.2432,-84 178.2432,-78 184.2432,-72 190.2432,-72 190.2432,-72 243.2432,-72 243.2432,-72 249.2432,-72 255.2432,-78 255.2432,-84 255.2432,-84 255.2432,-96 255.2432,-96 255.2432,-102 249.2432,-108 243.2432,-108"/>
<text text-anchor="middle" x="216.7432" y="-87.5" font-family="sans" font-size="10.00" fill="#000000">lfc_heatmap</text>
</g>
<!-- 1&#45;&gt;4 -->
<g id="edge11" class="edge">
<title>1&#45;&gt;4</title>
<path fill="none" stroke="#c0c0c0" stroke-width="2" d="M112.8864,-147.0816C130.6935,-137.2944 154.3405,-124.2976 174.5719,-113.1781"/>
<polygon fill="#c0c0c0" stroke="#c0c0c0" stroke-width="2" points="176.516,-116.1034 183.5937,-108.2195 173.1443,-109.9689 176.516,-116.1034"/>
</g>
<!-- 2&#45;&gt;0 -->
<g id="edge4" class="edge">
<title>2&#45;&gt;0</title>
<path fill="none" stroke="#c0c0c0" stroke-width="2" d="M75.8014,-75.6289C78.7992,-74.3462 81.8158,-73.1135 84.7432,-72 132.6114,-53.792 189.4827,-37.4198 225.8321,-27.5966"/>
<polygon fill="#c0c0c0" stroke="#c0c0c0" stroke-width="2" points="226.7614,-30.9711 235.5157,-25.0035 224.9507,-24.2094 226.7614,-30.9711"/>
</g>
<!-- 3&#45;&gt;0 -->
<g id="edge6" class="edge">
<title>3&#45;&gt;0</title>
<path fill="none" stroke="#c0c0c0" stroke-width="2" d="M160.0125,-72.3868C180.0615,-61.7727 205.6165,-48.2435 226.2227,-37.3343"/>
<polygon fill="#c0c0c0" stroke="#c0c0c0" stroke-width="2" points="228.1044,-40.2985 235.3046,-32.5263 224.8291,-34.1119 228.1044,-40.2985"/>
</g>
<!-- 4&#45;&gt;0 -->
<g id="edge7" class="edge">
<title>4&#45;&gt;0</title>
<path fill="none" stroke="#c0c0c0" stroke-width="2" d="M228.3509,-71.8314C233.5409,-63.7079 239.7663,-53.9637 245.4856,-45.0118"/>
<polygon fill="#c0c0c0" stroke="#c0c0c0" stroke-width="2" points="248.5446,-46.7246 250.9791,-36.4133 242.6457,-42.9559 248.5446,-46.7246"/>
</g>
<!-- 5 -->
<g id="node6" class="node">
<title>5</title>
<path fill="none" stroke="#5692d8" stroke-width="2" d="M332.2432,-108C332.2432,-108 285.2432,-108 285.2432,-108 279.2432,-108 273.2432,-102 273.2432,-96 273.2432,-96 273.2432,-84 273.2432,-84 273.2432,-78 279.2432,-72 285.2432,-72 285.2432,-72 332.2432,-72 332.2432,-72 338.2432,-72 344.2432,-78 344.2432,-84 344.2432,-84 344.2432,-96 344.2432,-96 344.2432,-102 338.2432,-108 332.2432,-108"/>
<text text-anchor="middle" x="308.7432" y="-87.5" font-family="sans" font-size="10.00" fill="#000000">env_export</text>
</g>
<!-- 5&#45;&gt;0 -->
<g id="edge8" class="edge">
<title>5&#45;&gt;0</title>
<path fill="none" stroke="#c0c0c0" stroke-width="2" d="M297.1354,-71.8314C291.9454,-63.7079 285.72,-53.9637 280.0007,-45.0118"/>
<polygon fill="#c0c0c0" stroke="#c0c0c0" stroke-width="2" points="282.8406,-42.9559 274.5072,-36.4133 276.9417,-46.7246 282.8406,-42.9559"/>
</g>
<!-- 6 -->
<g id="node7" class="node">
<title>6</title>
<path fill="none" stroke="#56d873" stroke-width="2" d="M433.2432,-108C433.2432,-108 374.2432,-108 374.2432,-108 368.2432,-108 362.2432,-102 362.2432,-96 362.2432,-96 362.2432,-84 362.2432,-84 362.2432,-78 368.2432,-72 374.2432,-72 374.2432,-72 433.2432,-72 433.2432,-72 439.2432,-72 445.2432,-78 445.2432,-84 445.2432,-84 445.2432,-96 445.2432,-96 445.2432,-102 439.2432,-108 433.2432,-108"/>
<text text-anchor="middle" x="403.7432" y="-87.5" font-family="sans" font-size="10.00" fill="#000000">config_export</text>
</g>
<!-- 6&#45;&gt;0 -->
<g id="edge5" class="edge">
<title>6&#45;&gt;0</title>
<path fill="none" stroke="#c0c0c0" stroke-width="2" d="M368.1629,-71.8314C346.9853,-61.0173 320.1835,-47.3312 298.9043,-36.4652"/>
<polygon fill="#c0c0c0" stroke="#c0c0c0" stroke-width="2" points="300.3541,-33.2757 289.8563,-31.845 297.1707,-39.51 300.3541,-33.2757"/>
</g>
<!-- 7 -->
<g id="node8" class="node">
<title>7</title>
<path fill="none" stroke="#d88d56" stroke-width="2" d="M532.2432,-108C532.2432,-108 475.2432,-108 475.2432,-108 469.2432,-108 463.2432,-102 463.2432,-96 463.2432,-96 463.2432,-84 463.2432,-84 463.2432,-78 469.2432,-72 475.2432,-72 475.2432,-72 532.2432,-72 532.2432,-72 538.2432,-72 544.2432,-78 544.2432,-84 544.2432,-84 544.2432,-96 544.2432,-96 544.2432,-102 538.2432,-108 532.2432,-108"/>
<text text-anchor="middle" x="503.7432" y="-87.5" font-family="sans" font-size="10.00" fill="#000000">annot_export</text>
</g>
<!-- 7&#45;&gt;0 -->
<g id="edge1" class="edge">
<title>7&#45;&gt;0</title>
<path fill="none" stroke="#c0c0c0" stroke-width="2" d="M463.1859,-74.8252C460.3372,-73.8445 457.5022,-72.8933 454.7432,-72 401.3682,-54.7196 338.6478,-37.6825 299.7911,-27.5025"/>
<polygon fill="#c0c0c0" stroke="#c0c0c0" stroke-width="2" points="300.5291,-24.078 289.9695,-24.9424 298.7634,-30.8516 300.5291,-24.078"/>
</g>
<!-- 8 -->
<g id="node9" class="node">
<title>8</title>
<path fill="none" stroke="#afd856" stroke-width="2" d="M659.2432,-108C659.2432,-108 574.2432,-108 574.2432,-108 568.2432,-108 562.2432,-102 562.2432,-96 562.2432,-96 562.2432,-84 562.2432,-84 562.2432,-78 568.2432,-72 574.2432,-72 574.2432,-72 659.2432,-72 659.2432,-72 665.2432,-72 671.2432,-78 671.2432,-84 671.2432,-84 671.2432,-96 671.2432,-96 671.2432,-102 665.2432,-108 659.2432,-108"/>
<text text-anchor="middle" x="616.7432" y="-87.5" font-family="sans" font-size="10.00" fill="#000000">feature_list_export</text>
</g>
<!-- 8&#45;&gt;0 -->
<g id="edge3" class="edge">
<title>8&#45;&gt;0</title>
<path fill="none" stroke="#c0c0c0" stroke-width="2" d="M562.1904,-74.0711C559.3399,-73.3461 556.5115,-72.6508 553.7432,-72 463.285,-50.7349 355.4112,-32.5663 299.8692,-23.7313"/>
<polygon fill="#c0c0c0" stroke="#c0c0c0" stroke-width="2" points="300.2248,-20.2441 289.8011,-22.141 299.1326,-27.1584 300.2248,-20.2441"/>
</g>
</g>
</svg>
