<?xml version="1.0" encoding="UTF-8" standalone="no"?>
<!DOCTYPE svg PUBLIC "-//W3C//DTD SVG 1.1//EN"
 "http://www.w3.org/Graphics/SVG/1.1/DTD/svg11.dtd">
<!-- Generated by graphviz version 2.40.1 (0)
 -->
<!-- Title: snakemake_dag Pages: 1 -->
<svg width="724pt" height="260pt"
 viewBox="0.00 0.00 723.80 260.00" xmlns="http://www.w3.org/2000/svg" xmlns:xlink="http://www.w3.org/1999/xlink">
<g id="graph0" class="graph" transform="scale(1 1) rotate(0) translate(4 256)">
<title>snakemake_dag</title>
<polygon fill="#ffffff" stroke="transparent" points="-4,4 -4,-256 719.8049,-256 719.8049,4 -4,4"/>
<!-- 0 -->
<g id="node1" class="node">
<title>0</title>
<path fill="none" stroke="#d88556" stroke-width="2" d="M276.3049,-36C276.3049,-36 246.3049,-36 246.3049,-36 240.3049,-36 234.3049,-30 234.3049,-24 234.3049,-24 234.3049,-12 234.3049,-12 234.3049,-6 240.3049,0 246.3049,0 246.3049,0 276.3049,0 276.3049,0 282.3049,0 288.3049,-6 288.3049,-12 288.3049,-12 288.3049,-24 288.3049,-24 288.3049,-30 282.3049,-36 276.3049,-36"/>
<text text-anchor="middle" x="261.3049" y="-15.5" font-family="sans" font-size="10.00" fill="#000000">all</text>
</g>
<!-- 1 -->
<g id="node2" class="node">
<title>1</title>
<path fill="none" stroke="#9fd856" stroke-width="2" d="M142.3049,-252C142.3049,-252 112.3049,-252 112.3049,-252 106.3049,-252 100.3049,-246 100.3049,-240 100.3049,-240 100.3049,-228 100.3049,-228 100.3049,-222 106.3049,-216 112.3049,-216 112.3049,-216 142.3049,-216 142.3049,-216 148.3049,-216 154.3049,-222 154.3049,-228 154.3049,-228 154.3049,-240 154.3049,-240 154.3049,-246 148.3049,-252 142.3049,-252"/>
<text text-anchor="middle" x="127.3049" y="-231.5" font-family="sans" font-size="10.00" fill="#000000">dea</text>
</g>
<!-- 1&#45;&gt;0 -->
<g id="edge5" class="edge">
<title>1&#45;&gt;0</title>
<path fill="none" stroke="#c0c0c0" stroke-width="2" d="M100.027,-221.1828C82.5038,-211.816 60.2983,-197.6808 45.3049,-180 12.9261,-141.8177 -18.1041,-110.984 13.3049,-72 39.308,-39.7256 161.0101,-25.7249 223.7245,-20.5692"/>
<polygon fill="#c0c0c0" stroke="#c0c0c0" stroke-width="2" points="224.2921,-24.0354 233.9866,-19.7614 223.7427,-17.057 224.2921,-24.0354"/>
</g>
<!-- 2 -->
<g id="node3" class="node">
<title>2</title>
<path fill="none" stroke="#56b1d8" stroke-width="2" d="M174.8049,-180C174.8049,-180 79.8049,-180 79.8049,-180 73.8049,-180 67.8049,-174 67.8049,-168 67.8049,-168 67.8049,-156 67.8049,-156 67.8049,-150 73.8049,-144 79.8049,-144 79.8049,-144 174.8049,-144 174.8049,-144 180.8049,-144 186.8049,-150 186.8049,-156 186.8049,-156 186.8049,-168 186.8049,-168 186.8049,-174 180.8049,-180 174.8049,-180"/>
<text text-anchor="middle" x="127.3049" y="-159.5" font-family="sans" font-size="10.00" fill="#000000">one_vs_all_contrasts</text>
</g>
<!-- 1&#45;&gt;2 -->
<g id="edge10" class="edge">
<title>1&#45;&gt;2</title>
<path fill="none" stroke="#c0c0c0" stroke-width="2" d="M127.3049,-215.8314C127.3049,-208.131 127.3049,-198.9743 127.3049,-190.4166"/>
<polygon fill="#c0c0c0" stroke="#c0c0c0" stroke-width="2" points="130.805,-190.4132 127.3049,-180.4133 123.805,-190.4133 130.805,-190.4132"/>
</g>
<!-- 3 -->
<g id="node4" class="node">
<title>3</title>
<path fill="none" stroke="#5682d8" stroke-width="2" d="M70.3049,-108C70.3049,-108 34.3049,-108 34.3049,-108 28.3049,-108 22.3049,-102 22.3049,-96 22.3049,-96 22.3049,-84 22.3049,-84 22.3049,-78 28.3049,-72 34.3049,-72 34.3049,-72 70.3049,-72 70.3049,-72 76.3049,-72 82.3049,-78 82.3049,-84 82.3049,-84 82.3049,-96 82.3049,-96 82.3049,-102 76.3049,-108 70.3049,-108"/>
<text text-anchor="middle" x="52.3049" y="-87.5" font-family="sans" font-size="10.00" fill="#000000">volcanos</text>
</g>
<!-- 1&#45;&gt;3 -->
<g id="edge11" class="edge">
<title>1&#45;&gt;3</title>
<path fill="none" stroke="#c0c0c0" stroke-width="2" d="M99.9849,-220.1224C84.9309,-210.9209 67.482,-197.3447 58.3049,-180 48.3258,-161.1397 47.2698,-136.8597 48.4652,-118.2724"/>
<polygon fill="#c0c0c0" stroke="#c0c0c0" stroke-width="2" points="51.9728,-118.3426 49.3787,-108.0703 45.0007,-117.7183 51.9728,-118.3426"/>
</g>
<!-- 4 -->
<g id="node5" class="node">
<title>4</title>
<path fill="none" stroke="#d85656" stroke-width="2" d="M192.3049,-108C192.3049,-108 150.3049,-108 150.3049,-108 144.3049,-108 138.3049,-102 138.3049,-96 138.3049,-96 138.3049,-84 138.3049,-84 138.3049,-78 144.3049,-72 150.3049,-72 150.3049,-72 192.3049,-72 192.3049,-72 198.3049,-72 204.3049,-78 204.3049,-84 204.3049,-84 204.3049,-96 204.3049,-96 204.3049,-102 198.3049,-108 192.3049,-108"/>
<text text-anchor="middle" x="171.3049" y="-87.5" font-family="sans" font-size="10.00" fill="#000000">aggregate</text>
</g>
<!-- 1&#45;&gt;4 -->
<g id="edge13" class="edge">
<title>1&#45;&gt;4</title>
<path fill="none" stroke="#c0c0c0" stroke-width="2" d="M154.3152,-220.4585C169.3813,-211.2976 186.7836,-197.6482 195.3049,-180 204.9449,-160.0348 197.3758,-135.6409 188.2655,-117.2883"/>
<polygon fill="#c0c0c0" stroke="#c0c0c0" stroke-width="2" points="191.2544,-115.4558 183.4439,-108.2972 185.0854,-118.7641 191.2544,-115.4558"/>
</g>
<!-- 5 -->
<g id="node6" class="node">
<title>5</title>
<path fill="none" stroke="#56d8c9" stroke-width="2" d="M287.8049,-108C287.8049,-108 234.8049,-108 234.8049,-108 228.8049,-108 222.8049,-102 222.8049,-96 222.8049,-96 222.8049,-84 222.8049,-84 222.8049,-78 228.8049,-72 234.8049,-72 234.8049,-72 287.8049,-72 287.8049,-72 293.8049,-72 299.8049,-78 299.8049,-84 299.8049,-84 299.8049,-96 299.8049,-96 299.8049,-102 293.8049,-108 287.8049,-108"/>
<text text-anchor="middle" x="261.3049" y="-87.5" font-family="sans" font-size="10.00" fill="#000000">lfc_heatmap</text>
</g>
<!-- 1&#45;&gt;5 -->
<g id="edge15" class="edge">
<title>1&#45;&gt;5</title>
<path fill="none" stroke="#c0c0c0" stroke-width="2" d="M154.3331,-221.3918C172.4164,-211.94 195.8292,-197.6252 212.3049,-180 229.2716,-161.8494 242.3092,-136.7178 250.6552,-117.6236"/>
<polygon fill="#c0c0c0" stroke="#c0c0c0" stroke-width="2" points="253.9433,-118.8331 254.5879,-108.2579 247.4892,-116.1229 253.9433,-118.8331"/>
</g>
<!-- 2&#45;&gt;0 -->
<g id="edge7" class="edge">
<title>2&#45;&gt;0</title>
<path fill="none" stroke="#c0c0c0" stroke-width="2" d="M122.2675,-143.6669C118.0462,-124.1163 114.7827,-93.1204 129.3049,-72 150.6053,-41.0216 193.0735,-27.7943 224.1069,-22.159"/>
<polygon fill="#c0c0c0" stroke="#c0c0c0" stroke-width="2" points="224.8383,-25.5861 234.1458,-20.5242 223.7132,-18.6771 224.8383,-25.5861"/>
</g>
<!-- 2&#45;&gt;3 -->
<g id="edge12" class="edge">
<title>2&#45;&gt;3</title>
<path fill="none" stroke="#c0c0c0" stroke-width="2" d="M108.3792,-143.8314C99.3192,-135.1337 88.324,-124.5783 78.4783,-115.1265"/>
<polygon fill="#c0c0c0" stroke="#c0c0c0" stroke-width="2" points="80.8622,-112.5633 71.2245,-108.1628 76.0145,-117.613 80.8622,-112.5633"/>
</g>
<!-- 2&#45;&gt;4 -->
<g id="edge14" class="edge">
<title>2&#45;&gt;4</title>
<path fill="none" stroke="#c0c0c0" stroke-width="2" d="M138.4079,-143.8314C143.3723,-135.7079 149.327,-125.9637 154.7977,-117.0118"/>
<polygon fill="#c0c0c0" stroke="#c0c0c0" stroke-width="2" points="157.8242,-118.7712 160.0523,-108.4133 151.8513,-115.121 157.8242,-118.7712"/>
</g>
<!-- 2&#45;&gt;5 -->
<g id="edge16" class="edge">
<title>2&#45;&gt;5</title>
<path fill="none" stroke="#c0c0c0" stroke-width="2" d="M161.1187,-143.8314C178.5755,-134.4516 200.0535,-122.9112 218.6401,-112.9244"/>
<polygon fill="#c0c0c0" stroke="#c0c0c0" stroke-width="2" points="220.3495,-115.9792 227.5018,-108.1628 217.0363,-109.8129 220.3495,-115.9792"/>
</g>
<!-- 3&#45;&gt;0 -->
<g id="edge1" class="edge">
<title>3&#45;&gt;0</title>
<path fill="none" stroke="#c0c0c0" stroke-width="2" d="M82.4895,-77.3175C87.0963,-75.4791 91.8119,-73.6518 96.3049,-72 139.8886,-55.9769 190.7727,-39.6821 224.3855,-29.2458"/>
<polygon fill="#c0c0c0" stroke="#c0c0c0" stroke-width="2" points="225.7146,-32.4985 234.2353,-26.2018 223.6477,-25.8106 225.7146,-32.4985"/>
</g>
<!-- 4&#45;&gt;0 -->
<g id="edge2" class="edge">
<title>4&#45;&gt;0</title>
<path fill="none" stroke="#c0c0c0" stroke-width="2" d="M194.0157,-71.8314C205.1009,-62.9632 218.6002,-52.1637 230.5901,-42.5718"/>
<polygon fill="#c0c0c0" stroke="#c0c0c0" stroke-width="2" points="232.9791,-45.1429 238.6013,-36.1628 228.6062,-39.6768 232.9791,-45.1429"/>
</g>
<!-- 5&#45;&gt;0 -->
<g id="edge6" class="edge">
<title>5&#45;&gt;0</title>
<path fill="none" stroke="#c0c0c0" stroke-width="2" d="M261.3049,-71.8314C261.3049,-64.131 261.3049,-54.9743 261.3049,-46.4166"/>
<polygon fill="#c0c0c0" stroke="#c0c0c0" stroke-width="2" points="264.805,-46.4132 261.3049,-36.4133 257.805,-46.4133 264.805,-46.4132"/>
</g>
<!-- 6 -->
<g id="node7" class="node">
<title>6</title>
<path fill="none" stroke="#70d856" stroke-width="2" d="M376.8049,-108C376.8049,-108 329.8049,-108 329.8049,-108 323.8049,-108 317.8049,-102 317.8049,-96 317.8049,-96 317.8049,-84 317.8049,-84 317.8049,-78 323.8049,-72 329.8049,-72 329.8049,-72 376.8049,-72 376.8049,-72 382.8049,-72 388.8049,-78 388.8049,-84 388.8049,-84 388.8049,-96 388.8049,-96 388.8049,-102 382.8049,-108 376.8049,-108"/>
<text text-anchor="middle" x="353.3049" y="-87.5" font-family="sans" font-size="10.00" fill="#000000">env_export</text>
</g>
<!-- 6&#45;&gt;0 -->
<g id="edge9" class="edge">
<title>6&#45;&gt;0</title>
<path fill="none" stroke="#c0c0c0" stroke-width="2" d="M330.0894,-71.8314C318.7578,-62.9632 304.9585,-52.1637 292.7022,-42.5718"/>
<polygon fill="#c0c0c0" stroke="#c0c0c0" stroke-width="2" points="294.5451,-39.5697 284.5129,-36.1628 290.2309,-45.0822 294.5451,-39.5697"/>
</g>
<!-- 7 -->
<g id="node8" class="node">
<title>7</title>
<path fill="none" stroke="#ced856" stroke-width="2" d="M477.8049,-108C477.8049,-108 418.8049,-108 418.8049,-108 412.8049,-108 406.8049,-102 406.8049,-96 406.8049,-96 406.8049,-84 406.8049,-84 406.8049,-78 412.8049,-72 418.8049,-72 418.8049,-72 477.8049,-72 477.8049,-72 483.8049,-72 489.8049,-78 489.8049,-84 489.8049,-84 489.8049,-96 489.8049,-96 489.8049,-102 483.8049,-108 477.8049,-108"/>
<text text-anchor="middle" x="448.3049" y="-87.5" font-family="sans" font-size="10.00" fill="#000000">config_export</text>
</g>
<!-- 7&#45;&gt;0 -->
<g id="edge8" class="edge">
<title>7&#45;&gt;0</title>
<path fill="none" stroke="#c0c0c0" stroke-width="2" d="M406.8035,-74.0209C374.2773,-61.4974 329.4412,-44.2343 298.1685,-32.1935"/>
<polygon fill="#c0c0c0" stroke="#c0c0c0" stroke-width="2" points="299.1142,-28.8072 288.5244,-28.4802 296.5989,-35.3397 299.1142,-28.8072"/>
</g>
<!-- 8 -->
<g id="node9" class="node">
<title>8</title>
<path fill="none" stroke="#d8b456" stroke-width="2" d="M576.8049,-108C576.8049,-108 519.8049,-108 519.8049,-108 513.8049,-108 507.8049,-102 507.8049,-96 507.8049,-96 507.8049,-84 507.8049,-84 507.8049,-78 513.8049,-72 519.8049,-72 519.8049,-72 576.8049,-72 576.8049,-72 582.8049,-72 588.8049,-78 588.8049,-84 588.8049,-84 588.8049,-96 588.8049,-96 588.8049,-102 582.8049,-108 576.8049,-108"/>
<text text-anchor="middle" x="548.3049" y="-87.5" font-family="sans" font-size="10.00" fill="#000000">annot_export</text>
</g>
<!-- 8&#45;&gt;0 -->
<g id="edge4" class="edge">
<title>8&#45;&gt;0</title>
<path fill="none" stroke="#c0c0c0" stroke-width="2" d="M507.7818,-74.9457C504.5901,-73.9028 501.4039,-72.9072 498.3049,-72 428.6471,-51.6079 345.6118,-34.2422 298.616,-25.0408"/>
<polygon fill="#c0c0c0" stroke="#c0c0c0" stroke-width="2" points="299.0766,-21.565 288.5929,-23.0954 297.7428,-28.4367 299.0766,-21.565"/>
</g>
<!-- 9 -->
<g id="node10" class="node">
<title>9</title>
<path fill="none" stroke="#56d86b" stroke-width="2" d="M703.8049,-108C703.8049,-108 618.8049,-108 618.8049,-108 612.8049,-108 606.8049,-102 606.8049,-96 606.8049,-96 606.8049,-84 606.8049,-84 606.8049,-78 612.8049,-72 618.8049,-72 618.8049,-72 703.8049,-72 703.8049,-72 709.8049,-72 715.8049,-78 715.8049,-84 715.8049,-84 715.8049,-96 715.8049,-96 715.8049,-102 709.8049,-108 703.8049,-108"/>
<text text-anchor="middle" x="661.3049" y="-87.5" font-family="sans" font-size="10.00" fill="#000000">feature_list_export</text>
</g>
<!-- 9&#45;&gt;0 -->
<g id="edge3" class="edge">
<title>9&#45;&gt;0</title>
<path fill="none" stroke="#c0c0c0" stroke-width="2" d="M606.7711,-73.9878C603.9157,-73.2846 601.081,-72.6167 598.3049,-72 490.5853,-48.0709 361.2528,-30.3804 298.7549,-22.5148"/>
<polygon fill="#c0c0c0" stroke="#c0c0c0" stroke-width="2" points="298.9524,-19.0124 288.5963,-21.249 298.0868,-25.9587 298.9524,-19.0124"/>
</g>
</g>
</svg>
